<svg  viewBox="0 0 335 262" fill="none" xmlns="http://www.w3.org/2000/svg">
<path d="M316.426 50.7923C316.426 50.7923 294.708 7.30348 246.741 0.859033C198.774 -5.58541 165.251 25.8219 129.978 41.933C111.497 50.3661 90.3546 47.0916 70.7596 51.1735C7.99729 64.2269 -15.6423 146.016 10.4943 192.525C33.1246 232.792 72.9426 253.725 133.589 258.562C194.236 263.399 236.76 269.029 291.074 229.57C345.389 190.11 341.755 107.97 316.426 50.7923Z" fill="#92E3A9"/>
<path opacity="0.7" d="M316.426 50.7923C316.426 50.7923 294.708 7.30348 246.741 0.859033C198.774 -5.58541 165.251 25.8219 129.978 41.933C111.497 50.3661 90.3546 47.0916 70.7596 51.1735C7.99729 64.2269 -15.6423 146.016 10.4943 192.525C33.1246 232.792 72.9426 253.725 133.589 258.562C194.236 263.399 236.76 269.029 291.074 229.57C345.389 190.11 341.755 107.97 316.426 50.7923Z" fill="white"/>
</svg>
