<svg viewBox="0 0 92 92"><g id="Layer_2" data-name="Layer 2"><g id="Layer_1-2" data-name="Layer 1"><rect x="35.05" width="4.38" height="8.76"/><polygon points="43.81 0 56.95 0 56.95 17.52 52.57 17.52 52.57 21.91 48.19 21.91 48.19 17.52 43.81 17.52 43.81 13.14 52.57 13.14 52.57 4.38 48.19 4.38 48.19 8.76 43.81 8.76 43.81 0"/><path d="M0,0V30.67H30.67V0ZM26.29,26.29H4.38V4.38H26.29Z"/><path d="M61.33,0V30.67H92V0ZM87.62,26.29H65.71V4.38H87.62Z"/><rect x="8.76" y="8.76" width="13.14" height="13.14"/><rect x="39.43" y="8.76" width="4.38" height="4.38"/><rect x="70.1" y="8.76" width="13.14" height="13.14"/><polygon points="35.05 13.14 39.43 13.14 39.43 17.52 43.81 17.52 43.81 21.91 48.19 21.91 48.19 30.67 43.81 30.67 43.81 26.29 39.43 26.29 39.43 30.67 35.05 30.67 35.05 13.14"/><rect x="52.57" y="26.29" width="4.38" height="4.38"/><polygon points="48.19 30.67 52.57 30.67 52.57 35.05 56.95 35.05 56.95 39.43 43.81 39.43 43.81 43.81 39.43 43.81 39.43 35.05 48.19 35.05 48.19 30.67"/><rect x="13.14" y="35.05" width="4.38" height="4.38"/><rect x="26.29" y="35.05" width="4.38" height="4.38"/><polygon points="65.71 35.05 78.86 35.05 78.86 43.81 74.48 43.81 74.48 39.43 70.09 39.43 70.09 43.81 74.48 43.81 74.48 52.57 70.09 52.57 70.09 56.95 65.71 56.95 65.71 70.09 61.33 70.09 61.33 65.71 56.95 65.71 56.95 70.09 52.57 70.09 52.57 61.33 48.19 61.33 48.19 52.57 35.05 52.57 35.05 56.95 13.14 56.95 13.14 52.57 4.38 52.57 4.38 39.43 13.14 39.43 13.14 43.81 8.76 43.81 8.76 48.19 13.14 48.19 13.14 43.81 21.91 43.81 21.91 48.19 26.29 48.19 26.29 52.57 30.67 52.57 30.67 48.19 26.29 48.19 26.29 43.81 39.43 43.81 39.43 48.19 43.81 48.19 43.81 43.81 48.19 43.81 48.19 48.19 52.57 48.19 52.57 52.57 56.95 52.57 56.95 43.81 61.33 43.81 61.33 39.43 65.71 39.43 65.71 35.05"/><polygon points="83.24 35.05 92 35.05 92 61.33 83.24 61.33 83.24 65.71 78.86 65.71 78.86 61.33 74.48 61.33 74.48 65.71 70.09 65.71 70.09 56.95 74.48 56.95 74.48 52.57 78.86 52.57 78.86 56.95 83.24 56.95 83.24 48.19 78.86 48.19 78.86 43.81 87.62 43.81 87.62 39.43 83.24 39.43 83.24 35.05"/><rect x="21.9" y="39.43" width="4.38" height="4.38"/><rect y="52.57" width="4.38" height="4.38"/><polygon points="35.05 56.95 43.81 56.95 43.81 65.71 48.19 65.71 48.19 70.09 43.81 70.09 43.81 74.48 39.43 74.48 39.43 61.33 35.05 61.33 35.05 56.95"/><path d="M0,61.33V92H30.67V61.33ZM26.29,87.62H4.38V65.71H26.29Z"/><rect x="74.48" y="65.71" width="4.38" height="8.76"/><rect x="83.24" y="65.71" width="4.38" height="4.38"/><rect x="8.76" y="70.1" width="13.14" height="13.14"/><polygon points="87.62 70.09 92 70.09 92 83.24 87.62 83.24 87.62 78.86 83.24 78.86 83.24 83.24 78.86 83.24 78.86 87.62 87.62 87.62 87.62 92 74.48 92 74.48 78.86 78.86 78.86 78.86 74.48 87.62 74.48 87.62 70.09"/><rect x="35.05" y="74.48" width="4.38" height="4.38"/><rect x="48.19" y="74.48" width="4.38" height="4.38"/><rect x="56.95" y="74.48" width="4.38" height="8.76"/><polygon points="65.71 74.48 70.09 74.48 70.09 92 61.33 92 61.33 83.24 65.71 83.24 65.71 74.48"/><rect x="39.43" y="78.86" width="4.38" height="4.38"/><polygon points="43.81 83.24 48.19 83.24 48.19 87.62 52.57 87.62 52.57 83.24 56.95 83.24 56.95 92 43.81 92 43.81 83.24"/></g></g></svg>