<svg id="Layer_1" data-name="Layer 1" xmlns="http://www.w3.org/2000/svg" viewBox="0 0 500 500"><defs><style>.cls-1,.cls-9{fill:#92e3a9;}.cls-2,.cls-3{fill:#fff;}.cls-2{opacity:0.8;isolation:isolate;}.cls-3,.cls-5,.cls-6,.cls-7,.cls-9{stroke:#263238;}.cls-3,.cls-5,.cls-6,.cls-7,.cls-8,.cls-9{stroke-miterlimit:10;}.cls-4,.cls-6{fill:#263238;}.cls-5,.cls-8{fill:none;}.cls-7{fill:#7d7d7d;}.cls-8{stroke:#858585;}</style></defs><g id="freepik--background-simple--inject-71"><path class="cls-1" d="M462.86,361.67C491.07,304.19,493,227.6,473.5,166.2,456.73,113.34,419.41,73,376.31,49,326.3,21.15,266.7,12.86,213,30.44c-14.11,4.62-27.86,8.86-41.17,16.46-54.56,31.14-44,107.88-63.17,134.58-16.11,22.46-46.9,15.84-66.32,33.05C-10,261,20.3,380.69,76.48,423.65,141.89,473.67,393,504,462.86,361.67Z"/><path class="cls-2" d="M462.86,361.67C491.07,304.19,493,227.6,473.5,166.2,456.73,113.34,419.41,73,376.31,49,326.3,21.15,266.7,12.86,213,30.44c-14.11,4.62-27.86,8.86-41.17,16.46-54.56,31.14-44,107.88-63.17,134.58-16.11,22.46-46.9,15.84-66.32,33.05C-10,261,20.3,380.69,76.48,423.65,141.89,473.67,393,504,462.86,361.67Z"/></g><path class="cls-1" d="M29.59,136.68c2.93-.11,8.78-3.1,8.79-3.11s-3.14-3.26-3.37-3.44c-2.61-2.09-8.88-4.59-12-2.53a4.44,4.44,0,0,0-1.08,6.17,3.57,3.57,0,0,0,.3.38C23.89,136.2,27.09,136.77,29.59,136.68Z"/><path class="cls-1" d="M90.09,109.09c.07,0-.82-4.45-.91-4.73-1-3.18-4.88-8.73-8.62-8.73a4.44,4.44,0,0,0-4.31,4.55c0,.15,0,.3,0,.45.27,2.63,2.62,4.88,4.76,6.18C83.55,108.35,90.08,109.09,90.09,109.09Z"/><path class="cls-1" d="M97.41,79.11c-3.53,1.26-5.3,7.78-5.2,11.12,0,.29.67,4.79.73,4.76H93c-.28,1-.58,2.14-.88,3.35-.53,2.24-1.12,4.78-1.56,7.59a77.7,77.7,0,0,0-1,9.13,58.73,58.73,0,0,0,.32,10.27v.12c-.46-1-1.83-3.74-2-3.94-1.83-2.8-7-7.13-10.62-6.15a4.44,4.44,0,0,0-3,5.54c0,.16.11.31.17.46,1,2.46,3.81,4,6.22,4.7,2.7.77,8.74-.12,9.22-.2A78,78,0,0,0,92.17,136c.54,2,1.16,3.91,1.8,5.87-.43-.85-.81-1.61-.88-1.71-1.83-2.8-7-7.13-10.62-6.15a4.44,4.44,0,0,0-3,5.54c0,.16.11.31.17.46.95,2.46,3.82,4,6.22,4.7s7.6,0,9-.16c.26.75.5,1.5.76,2.24,1.23,3.58,2.47,7.15,3.58,10.69.39,1.24.73,2.48,1.08,3.72-.38-.75-.71-1.38-.77-1.47-1.82-2.8-7-7.14-10.61-6.15a4.43,4.43,0,0,0-3,5.51,4.09,4.09,0,0,0,.18.49c1,2.46,3.82,4,6.22,4.69s7.1.1,8.72-.12c.32,1.28.64,2.57.88,3.82.15.86.36,1.68.46,2.56s.24,1.71.35,2.56c.17,1.63.35,3.32.47,4.92.09,1.12.16,2.18.23,3.25-.37-1.25-1.16-3.67-1.25-3.86a17.27,17.27,0,0,0-5.72-6.54A4.94,4.94,0,0,0,96,170a4.43,4.43,0,0,0-6.13-1.28c-.13.09-.26.18-.38.28-2.84,2.44-2.15,9.16-.85,12.24.08.19,1.13,2.07,1.81,3.24l-1.52-1.89c-1-1.27-2.11-2.52-3.26-3.86l-1.75-1.9c-.57-.65-1.26-1.26-1.89-1.9-1.49-1.45-3.08-2.85-4.71-4.23,1.12-.91,5-4.2,6.16-6.44s1.94-5.38.77-7.75a4.43,4.43,0,0,0-5.84-2.23l-.44.23c-3.18,2-3.51,8.73-2.69,12,0,.2.89,2.46,1.38,3.7-1-.82-2-1.64-3-2.44-3-2.29-6-4.52-9.06-6.76l-2.78-2.07c.4-.32,5.14-4.14,6.41-6.64,1.12-2.23,1.93-5.39.77-7.76a4.44,4.44,0,0,0-5.89-2.2l-.4.2c-3.17,2-3.51,8.73-2.69,12,.06.25,1.28,3.5,1.63,4.31-2-1.52-4-3.06-6-4.66a78,78,0,0,1-7.4-6.91c.19-.15,5.15-4.1,6.45-6.67,1.12-2.23,1.93-5.39.77-7.76a4.44,4.44,0,0,0-5.86-2.22l-.42.22c-3.18,2-3.51,8.72-2.7,12,0,.22,1,2.7,1.45,3.87l-.18.11a56.93,56.93,0,0,1-6.06-8.18c-1-1.58-1.86-3.15-2.67-4.7,1-.64,5.54-3.63,7-5.81s2.52-5.14,1.62-7.63a4.42,4.42,0,0,0-5.58-2.84l-.42.16c-3.38,1.62-4.45,8.29-4,11.6,0,.18.48,2,.83,3.29-.35-.7-.73-1.42-1-2.1-1.23-2.55-2.2-5-3-7.11-.47-1.22-.87-2.34-1.23-3.38.65-1.14,3.23-5.78,3.48-8.33s-.14-5.72-2.08-7.51a4.44,4.44,0,0,0-6.28,0c-.11.11-.21.23-.31.35-2.24,3-.12,9.4,1.81,12.13.16.24,3.19,3.63,3.23,3.57v-.07c.33,1,.69,2.1,1.11,3.28.79,2.16,1.71,4.6,2.88,7.19A79.74,79.74,0,0,0,41.28,139a57.67,57.67,0,0,0,5.93,8.38l.09.09c-.93-.58-3.6-2.1-3.81-2.2-3.07-1.32-9.78-2.08-12.25.73a4.43,4.43,0,0,0,.62,6.25c.12.1.25.19.38.28,2.15,1.53,5.39,1.23,7.77.49,2.69-.85,7.23-4.93,7.59-5.26A77.07,77.07,0,0,0,55,154.9c1.53,1.33,3.13,2.63,4.74,3.9-.83-.47-1.56-.89-1.67-.93-3.07-1.33-9.78-2.09-12.25.73a4.44,4.44,0,0,0,.61,6.24l.39.28c2.15,1.53,5.39,1.24,7.77.49s6.37-4.16,7.4-5.08L63.8,162c3,2.31,6,4.6,8.88,6.93,1,.82,2,1.67,3,2.52-.73-.42-1.35-.77-1.45-.81-3.07-1.33-9.78-2.09-12.25.73a4.44,4.44,0,0,0,.61,6.24l.39.28c2.15,1.53,5.39,1.24,7.78.49s6-3.83,7.2-4.91c1,.89,1.94,1.79,2.84,2.7.6.63,1.22,1.2,1.79,1.88L84.23,180c1,1.27,2.12,2.58,3.11,3.85.69.87,1.33,1.72,2,2.58-1-.83-3-2.42-3.17-2.53-2.84-1.78-9.35-3.55-12.22-1.14a4.44,4.44,0,0,0-.33,6.27,2.57,2.57,0,0,0,.33.33c1.89,1.84,5.14,2,7.61,1.66,2.72-.42,7.64-3.61,8.26-4,1.07,1.41,2.09,2.8,3,4.12,1.62,2.25,3.06,4.34,4.32,6.22l2.18-1.05c-1.37-1.95-2.94-4.13-4.71-6.48-1.08-1.44-2.27-3-3.5-4.51a48.5,48.5,0,0,0,3.57-4.39c2.63,1,8.11,1.09,8.81,1.09.11,1.77.21,3.49.27,5.12q.15,3.78.16,7l2.34-1.13c-.06-1.83-.16-3.82-.29-5.93-.1-1.8-.25-3.72-.43-5.69.7-.17,6.4-1.62,8.56-3.34,2-1.55,4-4.07,4-6.72a4.44,4.44,0,0,0-4.41-4.47l-.46,0c-3.71.47-6.84,6.46-7.46,9.74,0,.19-.2,2.34-.28,3.7-.07-.81-.13-1.59-.22-2.41-.16-1.64-.37-3.27-.59-5-.13-.85-.27-1.7-.41-2.56s-.35-1.74-.52-2.62c-.45-2-1-4.08-1.6-6.12,1.43-.15,6.51-.73,8.69-2s4.58-3.42,4.92-6a4.43,4.43,0,0,0-3.66-5.09l-.47-.05c-3.75-.1-7.74,5.34-8.85,8.5-.07.19-.61,2.54-.89,3.84-.37-1.22-.73-2.45-1.15-3.68-1.19-3.54-2.52-7.09-3.82-10.64-.4-1.08-.79-2.17-1.18-3.26.51,0,6.57-.61,9-2,2.16-1.24,4.58-3.43,4.92-6.05A4.44,4.44,0,0,0,106,130l-.46,0c-3.74-.1-7.74,5.35-8.85,8.5-.08.24-.86,3.62-1,4.49-.86-2.39-1.69-4.78-2.42-7.18A79.1,79.1,0,0,1,90.9,126c.24,0,6.56-.58,9.06-2,2.16-1.24,4.58-3.42,4.92-6a4.43,4.43,0,0,0-3.67-5.08l-.47,0c-3.74-.1-7.74,5.34-8.85,8.49-.07.21-.66,2.79-.91,4H90.7A57.47,57.47,0,0,1,90.16,115a51.64,51.64,0,0,1,.37-5.39c1.19,0,6.62,0,9-1s4.93-2.9,5.55-5.46A4.44,4.44,0,0,0,102,97.68l-.45-.1c-3.71-.51-8.28,4.46-9.73,7.48-.08.16-.7,1.92-1.13,3.2.1-.78.18-1.59.28-2.34.39-2.8.91-5.35,1.4-7.6.28-1.27.57-2.42.84-3.5,1.18-.59,5.88-3,7.49-5s3-4.85,2.41-7.41A4.44,4.44,0,0,0,97.85,79,3.17,3.17,0,0,0,97.41,79.11Z"/><path class="cls-1" d="M483.17,282.59c-2.92.21-9.07-2.12-9.08-2.12s2.77-3.59,3-3.79c2.36-2.36,8.32-5.54,11.65-3.83a4.44,4.44,0,0,1,1.75,6,4.37,4.37,0,0,1-.25.4C488.78,281.49,485.66,282.41,483.17,282.59Z"/><path class="cls-1" d="M420,261.78c-.07,0,.33-4.51.39-4.8.67-3.27,3.89-9.21,7.61-9.62a4.44,4.44,0,0,1,4.78,4c0,.16,0,.32,0,.48,0,2.64-2.07,5.13-4.05,6.66C426.44,260.34,420,261.78,420,261.78Z"/><path class="cls-1" d="M458.86,418.42c-1.6.8-5.61.91-5.61.91s.72-2.67.79-2.83c.79-1.88,3.42-5.06,5.69-4.87a2.7,2.7,0,0,1,2.4,3c0,.1,0,.2-.05.3C461.78,416.49,460.23,417.74,458.86,418.42Z"/><path class="cls-1" d="M418.36,421.36s-.86-2.63-.9-2.8c-.38-2,.06-6.11,2.06-7.21a2.71,2.71,0,0,1,3.64,1.17l.12.28c.63,1.48,0,3.38-.74,4.7C421.65,419.05,418.36,421.36,418.36,421.36Z"/><path class="cls-1" d="M431.24,464.59c.49,1.11,1,2.18,1.44,3.17s.78,1.64,1.15,2.39h1.59c-.48-.92-1-1.91-1.52-3-.44-.89-.9-1.84-1.36-2.82a19.39,19.39,0,0,0,4.4-3.17,28.65,28.65,0,0,0,3.2,1.31c-.2,1.19-.39,2.35-.55,3.44-.22,1.53-.4,2.94-.55,4.22h1.45c.12-1.23.26-2.58.44-4,.12-1,.27-2,.43-3.1.44,0,4,.31,5.6-.27a5.44,5.44,0,0,0,3.59-3.12,2.7,2.7,0,0,0-1.66-3.44l-.29-.08c-2.24-.45-5.22,2.4-6.21,4.18-.07.12-.67,1.55-1,2.29.09-.65.19-1.29.3-2,.16-1,.36-2,.54-3,.11-.51.23-1,.35-1.54s.27-1,.4-1.53c.22-.75.48-1.52.74-2.28a17.22,17.22,0,0,0,5.3.52c1.49-.29,3.32-1.09,4-2.54a2.71,2.71,0,0,0-1.13-3.66l-.26-.12c-2.15-.78-5.52,1.59-6.78,3.2,0,.05-.27.42-.54.86.28-.74.55-1.48.85-2.22.86-2.09,1.79-4.2,2.73-6.31l.57-1.33c.82.19,3.93.86,5.45.56s3.32-1.09,4-2.55a2.71,2.71,0,0,0-1.13-3.66l-.26-.12c-2.15-.78-5.52,1.59-6.78,3.2,0,.06-.32.5-.62,1,.49-1.15,1-2.31,1.4-3.48a46.29,46.29,0,0,0,1.86-6.11c.29.07,3.92.92,5.61.59,1.5-.3,3.32-1.09,4-2.54a2.71,2.71,0,0,0-1.14-3.66l-.26-.12c-2.14-.79-5.52,1.59-6.77,3.2-.09.11-1.07,1.71-1.4,2.29v-.07a36.26,36.26,0,0,0,.72-6.23,47.78,47.78,0,0,0-.15-5.61c-.13-1.73-.35-3.31-.56-4.7-.12-.75-.25-1.44-.37-2.08h0s.67-2.68.69-2.86c.23-2-.51-6.08-2.59-7a2.7,2.7,0,0,0-3.54,1.44,2.31,2.31,0,0,0-.1.28c-.52,1.53.22,3.37,1.08,4.63s3.62,3,4.3,3.45c.12.66.23,1.38.34,2.17.18,1.39.37,3,.46,4.7a13.86,13.86,0,0,0,.05,1.43c-.2-.8-.48-1.9-.52-2-.73-1.91-3.26-5.17-5.54-5.05a2.7,2.7,0,0,0-2.48,2.9c0,.1,0,.2,0,.3.24,1.6,1.75,2.89,3.1,3.62s4.71,1,5.43,1.07c0,1.07,0,2.16,0,3.3a36.52,36.52,0,0,1-.85,6.16h-.13c-.09-.76-.32-2.36-.36-2.49-.51-2-2.67-5.5-4.95-5.63a2.72,2.72,0,0,0-2.79,2.65,2.44,2.44,0,0,0,0,.27c.07,1.61,1.43,3.06,2.69,3.93,1.45,1,5.26,1.66,5.41,1.69a48,48,0,0,1-1.94,5.87c-.56,1.42-1.19,2.83-1.84,4.24,0-.53-.35-2.63-.38-2.78-.52-2-2.67-5.5-5-5.63a2.71,2.71,0,0,0-2.78,2.64,2.62,2.62,0,0,0,0,.28c.07,1.61,1.43,3.06,2.68,3.93,1.41,1,5.07,1.63,5.38,1.68-.3.64-.59,1.28-.89,1.93-1,2.09-2,4.18-2.87,6.28-.32.72-.6,1.45-.89,2.18-.1-.81-.31-2.27-.34-2.39-.51-2-2.67-5.5-4.95-5.63a2.72,2.72,0,0,0-2.79,2.65,2.44,2.44,0,0,0,0,.27c.07,1.61,1.43,3.06,2.69,3.93s4.32,1.49,5.19,1.65c-.48,1.21-.92,2.42-1.29,3.64-.15.53-.34,1.06-.46,1.57s-.25,1-.38,1.53c-.22,1.06-.43,2-.61,3-.1.5-.17,1-.26,1.46v-2.27c-.21-2-1.81-5.83-4-6.31a2.75,2.75,0,0,0-3.19,2.46,3,3,0,0,0,0,.6,10.46,10.46,0,0,0-1.15,5.18c0,.13.3,1.66.47,2.43-.28-.59-.55-1.18-.83-1.8-.41-.9-.8-1.85-1.19-2.78l-.57-1.48c-.2-.49-.33-1-.5-1.5-.23-.74-.44-1.52-.65-2.3a17.16,17.16,0,0,0,4.71-2.49c1.09-1.07,2.17-2.74,2-4.34a2.71,2.71,0,0,0-3-2.43l-.29,0c-2.22.53-3.73,4.37-3.89,6.41v1c-.18-.76-.36-1.53-.52-2.31-.44-2.22-.82-4.49-1.21-6.77-.08-.48-.17-.95-.25-1.43.79-.29,3.75-1.45,4.85-2.54s2.17-2.74,1.95-4.34a2.7,2.7,0,0,0-2.95-2.42l-.29,0c-2.23.53-3.73,4.37-3.89,6.4V440c-.23-1.23-.48-2.46-.76-3.67a48.45,48.45,0,0,0-1.82-6.13c.28-.1,3.78-1.39,5-2.6a5.42,5.42,0,0,0,1.95-4.34A2.7,2.7,0,0,0,427,421h0c-2.22.53-3.72,4.37-3.88,6.4,0,.15.05,2,.1,2.69V430a35.42,35.42,0,0,0-2.83-5.6,50.4,50.4,0,0,0-3.22-4.59c-1.07-1.38-2.12-2.57-3.07-3.61-.51-.57-1-1.07-1.45-1.54h.05s-.92-2.61-1-2.76c-.93-1.82-3.78-4.8-6-4.44a2.7,2.7,0,0,0-2.16,3.15c0,.1,0,.19.07.29.41,1.56,2.05,2.69,3.46,3.27s4.68.52,5.49.5a19.94,19.94,0,0,1,1.47,1.62c.92,1.07,2,2.28,3,3.67.27.37.55.78.83,1.17-.6-.56-1.45-1.32-1.54-1.39-1.66-1.19-5.56-2.51-7.4-1.15a2.7,2.7,0,0,0-.45,3.79c0,.07.12.14.18.21,1.08,1.19,3.06,1.44,4.58,1.3s4.49-1.74,5.12-2.1c.61.88,1.21,1.79,1.78,2.78a34.36,34.36,0,0,1,2.68,5.61l-.11.06c-.5-.58-1.57-1.79-1.67-1.88-1.52-1.37-5.25-3.11-7.23-2a2.69,2.69,0,0,0-.91,3.71,3,3,0,0,0,.2.29,5.72,5.72,0,0,0,4.41,1.8c1.75,0,5.31-1.52,5.44-1.58a47.87,47.87,0,0,1,1.62,6c.32,1.49.57,3,.81,4.56-.34-.43-1.74-2-1.86-2.12-1.52-1.36-5.25-3.11-7.23-2a2.7,2.7,0,0,0-.9,3.72,2.75,2.75,0,0,0,.19.28c.95,1.3,2.88,1.77,4.41,1.79,1.71,0,5.13-1.43,5.41-1.56l.33,2.09c.34,2.29.67,4.58,1.06,6.83.14.78.31,1.54.47,2.31-.53-.62-1.51-1.72-1.6-1.81-1.52-1.36-5.26-3.11-7.24-2a2.7,2.7,0,0,0-.9,3.72,2.75,2.75,0,0,0,.19.28c.95,1.3,2.89,1.76,4.41,1.79s4.43-1.14,5.24-1.48c.27,1.27.58,2.52.93,3.74.17.53.3,1.07.49,1.57s.36,1,.53,1.48c.4,1,.76,1.94,1.16,2.87.19.46.39.9.58,1.36-.44-.71-1.15-1.81-1.23-1.91-1.29-1.57-4.72-3.87-6.85-3a2.7,2.7,0,0,0-1.43,3.54c0,.09.08.18.13.27.74,1.44,2.58,2.19,4.08,2.45S430.82,464.7,431.24,464.59Z"/><g id="freepik--Character--inject-71"><path class="cls-3" d="M311,135.07s1.2,7-.32,10.59-3.63,4.53-4.23,6,.6,5.15.92,6.69.9,3-1.52,3.34c-1.11.15-2.22.26-3.34.3,0,0-5.75,7.26-9.68,7.26s-7.25-6.08-12.06-14.29-1.51-13,4.24-16.94S311,135.07,311,135.07Z"/><path class="cls-4" d="M302.71,151.74c-.49,1.24-1.27,2.1-1.74,1.91s-.45-1.33,0-2.58,1.27-2.09,1.74-1.92S303.21,150.55,302.71,151.74Z"/><path class="cls-5" d="M301.88,146.26s3-2.42,4.53,1.21"/><path class="cls-6" d="M295.51,137.18l-.9,73.82s-5.76.3-13,0-17.54-3.34-29.34-10.89-7-31.75-7-31.75l18.15-22.08Z"/><path class="cls-7" d="M270.7,114.2s-6.35,7.86-9.07,14.82.61,14.22.61,14.22l48.39-16.34s0-3.94-6.34-9.38-25.11-7.56-29.35-7S270.7,114.2,270.7,114.2Z"/><path class="cls-3" d="M273.73,95.43s-13,3.95-15.42,10,4.23,12.09,8.76,13.6,18.15-3.34,20.28-7.86,1.17-9.65-2.73-13.64S275.24,94.87,273.73,95.43Z"/><path class="cls-7" d="M270.4,136.28s-7.86,3-10,4.23-1.22,3.63-.3,5.45.6,3.63,2.11,3.63,30.25-9.38,40.24-11.79,10.89,0,11.49-3,1.21-9.38-.9-10.89S286.44,129.32,270.4,136.28Z"/><path class="cls-6" d="M223.82,295l7,59.87s-9.38,14.83-11.79,25.72-14.83,36.6-14.83,36.6l11.19,6.05s20.57-30.56,27.23-41.15,10-15.12,10-19.05,8.48-61.38,8.48-61.38Z"/><path class="cls-7" d="M222,422.87s4.27,1.83,3.26,4.68-12.8,7.32-13.21,7.92S222,422.87,222,422.87Z"/><path class="cls-7" d="M199,410.48c.61.61,24.19,11.58,24.19,11.58s-9.56,14.68-11.55,17.89,3,10.56,4.46,13.2,9.75,7.32,11.38,8.13.4,1.83,0,4.67-1.23,3.45-3.26,3.45S209,468,204.75,465.55s-5.27-6.68-7.1-8.33-2.44-1.63-2.44-1.63l-1.84,2.64s-2.42.2-6.49-2.44a14.72,14.72,0,0,1-5.49-6.5s4.27-7.72,7.12-9.76,5.28-6.29,6.09-8.9S199,410.48,199,410.48Z"/><path class="cls-5" d="M215.4,434.7s5-5.87,7.21-3.34S215.4,434.7,215.4,434.7Z"/><path class="cls-5" d="M215.4,434.7s10.74,2.85,8.22,3.69S215.4,434.7,215.4,434.7Z"/><path class="cls-5" d="M215.57,442.92a15.4,15.4,0,0,1-.17-8.22,66.05,66.05,0,0,1,2.52,12.92"/><path class="cls-3" d="M220.38,466c-5.08-.4-15.85-3.45-19.71-9.76-3.25-5.3-5.48-2.84-11.14-6.29a11.28,11.28,0,0,1-5-5.72c-1.73,2.56-3.15,5.11-3.15,5.11a14.72,14.72,0,0,0,5.49,6.5c4.07,2.64,6.49,2.44,6.49,2.44l1.84-2.64s.6,0,2.44,1.63,2.84,5.89,7.11,8.33,17.47,3.85,19.51,3.85,2.8-.59,3.21-3.34A59.76,59.76,0,0,1,220.38,466Z"/><path class="cls-6" d="M233.2,298.29l29.64,62.89s-2.42,13.92.6,24.2,17.82,38.42,17.82,38.42l1.51,4.54L295.48,422s-7.86-25.1-9.68-35.09-.3-23.59-3.34-33-12.71-56.24-12.71-56.24Z"/><line class="cls-8" x1="234.34" y1="305.5" x2="251.79" y2="343.64"/><path class="cls-7" d="M300.77,425.84s1.68-10.24,3-10.24,6.68,1,4.53,4.37-6.68,11.9-6.68,11.9Z"/><path class="cls-7" d="M299.74,416.85,275.55,428l14.82,24.5a39.27,39.27,0,0,0,2.73,9.38c1.81,3.63,2.71,5.14,2.71,5.14l13-4.23s0-2.12,1.51-2.42a7.35,7.35,0,0,1,2.34.07,6.2,6.2,0,0,0,3.81-.57c4.85-2.4,17.17-8.54,19.34-9.75,2.73-1.52,3-5.48,2-7s-3.93-3.34-7-3.34-14.47,1.52-18.75.3-5.15-.6-7-2.71S299.74,416.85,299.74,416.85Z"/><path class="cls-5" d="M301.6,431.87s5-5.87,7.22-3.34S301.6,431.87,301.6,431.87Z"/><path class="cls-5" d="M301.6,431.87s10.74,2.85,8.22,3.7S301.6,431.87,301.6,431.87Z"/><path class="cls-5" d="M301.77,440.08a15.6,15.6,0,0,1-.17-8.22,64.61,64.61,0,0,1,2.52,12.92"/><path class="cls-3" d="M335.82,450.16c2.45-2.15,3-5.85,1.91-7.18h0a104.69,104.69,0,0,1-21.16,12.77c-14.48,6.56-20.18,6.56-23.08,6.91,1.55,3.08,1.11,4.25,2.35,4.46,10,1.24,13-4.23,13-4.23s0-2.12,1.52-2.42a6.89,6.89,0,0,1,2.22,0c1.46.22,4.46.67,5.75,0C323.34,458,330.84,454.56,335.82,450.16Z"/><path class="cls-7" d="M272.83,194.67s13.36,72.16,18.15,86.68a121.11,121.11,0,0,1,5.75,25.37l-22.4,2.11Z"/><path class="cls-7" d="M246.8,164.41s-10,10.29-17.54,30.86S216.86,271.06,215,281s-2.72,24.28-.91,24.88,29.66,8.78,45.38,8.78,24.81.3,24.81-1.82S281,217.93,278,202.19,270.4,185,265.57,175.57,246.8,164.41,246.8,164.41Z"/><path class="cls-3" d="M272.22,182.84a74.77,74.77,0,0,0-10-15.72c-6.36-7.56-10.89-15.14-14.82-12.71s-7.87,7.56-7,10.89,19.16,11.82,23,14.2S271.31,186.49,272.22,182.84Z"/><path class="cls-6" d="M272.93,189s-10.79-6.37-18.82-3.34a36.75,36.75,0,0,0-13.56,9.69l-2.78-11.08s11.07-8.58,19.1-8.58S271,180.42,272.93,189Z"/><path class="cls-6" d="M318.41,205.6,317,204.49l13.89-24a.91.91,0,0,1,1.24-.33l.1.07h0a.9.9,0,0,1,.24,1.18Z"/><path class="cls-3" d="M303.21,212.83a11.64,11.64,0,0,0,4.05-6.28c.78-3.85,1.64-9.54,3.12-10.79s7.79-3.34,8.8-3.77,3,0,1.82,2.88-5.35,3.82-5.35,3.82l5,2.57s3-5.87,3.93-5.68,1.24,1.48,1.83,4.69-.61,4.45-2.29,6.68-1.38,3.73-2.75,5.92-11.73,8.95-13,9.35S303.21,212.83,303.21,212.83Z"/><path class="cls-7" d="M252,190.74s-4.85,7.26,0,20S267.38,257,271,256.36s40.24-28.14,40.84-30.86-7.26-12.4-8.16-13.36-7.58,4.53-12.11,6.35S280.09,224,280.09,224s-3.63-31.18-9.08-36.6-11.2-2.12-12.1-1.82"/><polygon class="cls-3" points="301.87 234 297.63 227.34 301.56 224.31 305.5 231.27 301.87 234"/><path class="cls-9" d="M239.06,182.6c.33,1.2.3,22.63-.6,44.07s-5.43,45.26-7.55,54.66-7.55,10.55-16.9,9.95-22.65-3-28.69-7.85-5.43-15.39-2.11-24.15,8.43-36.53,8.43-48.3c0-8.6.9-17.65,3.8-25.78,4.88-13.56,15.88-13.5,28.49-13.09C231.16,172.34,237.06,175.21,239.06,182.6Z"/><path class="cls-9" d="M238.28,180.4c-2.5-5.76-7.89-8.08-14.33-8.29-12.63-.42-23.63-.47-28.48,13.09-2.91,8.13-3.81,17.18-3.81,25.78,0,11.77-5.13,39.54-8.45,48.3-3.13,8.25-3.85,18.09,1.11,23.25-1-4.46,1.05-13.84,7.33-28.69,7.55-17.81,6.95-48,6.95-48s0-20.24,2.41-25.07,11.77-4.22,26-2.72A54.52,54.52,0,0,1,238.28,180.4Z"/><path class="cls-6" d="M238.76,187.73l.47-.41a43.71,43.71,0,0,0-.17-4.72c-2-7.39-7.9-10.26-15.11-10.49-12.63-.42-23.63-.47-28.48,13.09-2.91,8.13-3.81,17.18-3.81,25.78a98.37,98.37,0,0,1-.87,11.37c1.92,1.28,4.73,2.62,5.7.1,1.52-3.93,3.34-28.95,4.23-36.24s10.26-6.93,21.44-5.43S238.76,187.73,238.76,187.73Z"/><polygon class="cls-3" points="212.49 255.06 210.38 221.54 227.28 223.05 225.18 256.56 212.49 255.06"/><polygon class="cls-3" points="201.63 251.44 201.93 231.81 218.23 234.52 216.11 256.26 201.63 251.44"/><path class="cls-6" d="M232.42,249.66c-22.94,2.41-35.33-3.63-35.33-3.63s-6.93,19-9.05,26.26,2.12,8.76,11.77,12.09,24.15,6.33,26.87,1.2S232.42,249.66,232.42,249.66Z"/></g><g id="freepik--Floor--inject-71"><line class="cls-5" x1="461" y1="470.33" x2="468.33" y2="470.33"/><line class="cls-5" x1="29" y1="470.33" x2="451" y2="470.33"/></g></svg>