<svg viewBox="0 0 53 58" fill="none" xmlns="http://www.w3.org/2000/svg">
<g clip-path="url(#clip0)">
<path d="M52.1249 7.52628L10.3806 2.68335C8.97119 2.51645 7.54675 2.83061 6.33779 3.575C5.12883 4.31938 4.20609 5.45044 3.71889 6.78515L1.02612 14.1454C1.02612 14.1454 1.84289 22.5917 9.3469 22.1573C15.6003 21.7739 15.9193 17.3783 15.8427 15.9343L47.7476 19.7678L52.1249 7.52628Z" fill="white" stroke="#263238" stroke-linecap="round" stroke-linejoin="round"/>
<path d="M47.722 19.7678L47.9135 45.4519L52.3291 36.0216L52.1249 7.52628L47.722 19.7678Z" fill="#263238" stroke="#263238" stroke-linecap="round" stroke-linejoin="round"/>
<path d="M47.9135 45.4519L1.81737 38.6284L1.01337 14.1454L47.722 19.7678L47.9135 45.4519Z" fill="#263238" stroke="#263238" stroke-linecap="round" stroke-linejoin="round"/>
<path d="M15.8427 15.9727L16.2639 40.9029C16.2639 40.9029 15.345 43.1007 11.1591 44.0335C6.97319 44.9663 4.22937 44.8386 2.22575 42.1807C1.43269 41.0565 0.988737 39.723 0.949554 38.3472V14.1454L15.8427 15.9727Z" fill="#263238" stroke="#263238" stroke-linecap="round" stroke-linejoin="round"/>
<path d="M35.3302 39.5867C35.9639 38.0421 36.2891 36.3881 36.2874 34.7182C36.3797 31.7054 35.3276 28.7697 33.3433 26.5029C31.359 24.2362 28.5901 22.8072 25.595 22.5041C22.5999 22.2009 19.6014 23.0462 17.2042 24.8695C14.807 26.6928 13.1895 29.3584 12.6778 32.3287L10.8273 39.6634L13.8902 40.5962C14.8849 42.5283 16.3877 44.1517 18.2365 45.2911C20.0852 46.4306 22.2096 47.0429 24.3805 47.062C26.3816 47.0792 28.3524 46.5726 30.0978 45.5925L33.6712 46.6914L35.3302 39.5867Z" fill="#263238" stroke="white" stroke-linecap="round" stroke-linejoin="round"/>
<path d="M21.9684 56.4922C28.5515 56.4922 33.8881 50.9658 33.8881 44.1485C33.8881 37.3313 28.5515 31.8048 21.9684 31.8048C15.3854 31.8048 10.0488 37.3313 10.0488 44.1485C10.0488 50.9658 15.3854 56.4922 21.9684 56.4922Z" fill="#263238" stroke="white" stroke-linecap="round" stroke-linejoin="round"/>
<path d="M21.9685 53.0294C26.7049 53.0294 30.5445 49.0533 30.5445 44.1485C30.5445 39.2438 26.7049 35.2677 21.9685 35.2677C17.2321 35.2677 13.3925 39.2438 13.3925 44.1485C13.3925 49.0533 17.2321 53.0294 21.9685 53.0294Z" fill="#263238" stroke="white" stroke-linecap="round" stroke-linejoin="round"/>
<path d="M21.4325 1.50776L18.2292 13.532L36.9255 15.9471L40.0394 3.43727L21.4325 1.50776Z" fill="#263238" stroke="white" stroke-linecap="round" stroke-linejoin="round"/>
<path d="M18.2292 13.532V19.4228L34.2582 21.5567L36.9255 15.9471L18.2292 13.532Z" fill="#263238" stroke="white" stroke-linecap="round" stroke-linejoin="round"/>
<path d="M48.1304 11.6792C48.1304 13.5192 46.1013 15.0015 43.5999 15.0015C41.0986 15.0015 39.0695 13.5192 39.0695 11.6792C39.0695 9.83913 41.0986 8.35686 43.5999 8.35686C46.1013 8.35686 48.1304 9.81358 48.1304 11.6792Z" fill="white" stroke="#263238" stroke-linecap="round" stroke-linejoin="round"/>
<path d="M13.3797 13.7748C13.3797 15.6149 11.2995 17.0971 8.73434 17.0971C6.16919 17.0971 4.14005 15.6149 4.14005 13.7748C4.14005 11.9348 6.16919 10.4525 8.73434 10.4525C11.2995 10.4525 13.3797 11.9475 13.3797 13.7748Z" fill="white" stroke="#263238" stroke-linecap="round" stroke-linejoin="round"/>
</g>
<defs>
<clipPath id="clip0">
<rect width="52.6557" height="56.2623" fill="white" transform="translate(0.311462 0.868853)"/>
</clipPath>
</defs>
</svg>
