<svg width="32" height="28" viewBox="0 0 32 28" fill="none" xmlns="http://www.w3.org/2000/svg">
<path d="M20.0123 13.2399L16.9062 19.452C16.5312 20.2082 15.4438 20.1832 15.1001 19.4145L11.544 11.5212L9.66912 16.0022H3.78821L15.1938 27.6578C15.6375 28.1141 16.3562 28.1141 16.8 27.6578L28.2118 16.0022H21.3934L20.0123 13.2399ZM29.6055 2.62173L29.4555 2.46549C26.2369 -0.821829 20.9685 -0.821829 17.7436 2.46549L16 4.25289L14.2564 2.47174C11.0378 -0.821829 5.76309 -0.821829 2.54453 2.47174L2.39454 2.62173C-0.649034 5.73406 -0.780276 10.69 1.93832 14.0023H8.33794L10.5816 8.61514C10.919 7.80894 12.0565 7.79019 12.419 8.59015L16.0562 16.6709L19.1186 10.5525C19.4873 9.81508 20.5372 9.81508 20.906 10.5525L22.6309 14.0023H30.0617C32.7803 10.69 32.649 5.73406 29.6055 2.62173Z" fill="#00987D"/>
</svg>
